<svg version="1.2" xmlns="http://www.w3.org/2000/svg" viewBox="0 0 47 40" width="47" height="40">
	<title>mark-svg</title>
	<style>
		.s0 { fill: #fde047 } 
	</style>
	<path id="Layer" class="s0" d="m34.9 20q0-7.6-7.6-9.5 3.8 2.8 2.8 6.6c-0.3 1.5-1.4 2.5-2.5 3.7-1.9 1.8-4.1 4-4.1 8.7q0 7.6 7.6 9.5-3.8-2.9-2.9-6.7c0.4-1.4 1.5-2.4 2.6-3.6 1.9-1.8 4.1-4 4.1-8.7zm-11.4-9.5q0-7.6-7.6-9.5 3.8 2.9 2.9 6.7c-0.4 1.4-1.5 2.4-2.6 3.6-1.9 1.8-4.1 4-4.1 8.7q0 7.6 7.6 9.5-3.8-2.8-2.9-6.6c0.4-1.5 1.5-2.5 2.6-3.7 1.9-1.8 4.1-4 4.1-8.7z"/>
</svg>