<!DOCTYPE svg PUBLIC "-//W3C//DTD SVG 1.1//EN" "http://www.w3.org/Graphics/SVG/1.1/DTD/svg11.dtd">
<!-- Uploaded to: SVG Repo, www.svgrepo.com, Transformed by: SVG Repo Mixer Tools -->
<svg fill="#2563EB" height="800px" width="800px" version="1.1" id="Capa_1" xmlns="http://www.w3.org/2000/svg" xmlns:xlink="http://www.w3.org/1999/xlink" viewBox="0 0 182.932 182.932" xml:space="preserve">
<g id="SVGRepo_bgCarrier" stroke-width="0"/>
<g id="SVGRepo_tracerCarrier" stroke-linecap="round" stroke-linejoin="round"/>
<g id="SVGRepo_iconCarrier"> <path d="M179.932,178.856h-11.727c-1.657,0-3-1.343-3-3V38.537c0-0.195,0.019-0.39,0.057-0.581l5.863-29.695 c0.278-1.405,1.511-2.419,2.943-2.419s2.666,1.013,2.943,2.419l5.864,29.695c0.038,0.191,0.057,0.386,0.057,0.581v137.319 C182.932,177.513,181.588,178.856,179.932,178.856z M171.205,172.856h5.727V38.83l-2.864-14.502l-2.863,14.502V172.856z M136.829,178.856H23.293c-7.181,0-13.071-5.637-13.478-12.718H3c-1.657,0-3-1.343-3-3s1.343-3,3-3h6.793v-9.928H3 c-1.657,0-3-1.343-3-3s1.343-3,3-3h6.793v-9.927H3c-1.657,0-3-1.343-3-3s1.343-3,3-3h6.793v-9.928H3c-1.657,0-3-1.343-3-3 s1.343-3,3-3h6.793v-9.927H3c-1.657,0-3-1.343-3-3s1.343-3,3-3h6.793v-9.928H3c-1.657,0-3-1.343-3-3s1.343-3,3-3h6.793v-9.927H3 c-1.657,0-3-1.343-3-3s1.343-3,3-3h6.793v-9.927H3c-1.657,0-3-1.343-3-3s1.343-3,3-3h6.793V38.72H3c-1.657,0-3-1.343-3-3 s1.343-3,3-3h6.793v-9.927H3c-1.657,0-3-1.343-3-3s1.343-3,3-3h6.815c0.407-7.081,6.296-12.718,13.478-12.718h113.536 c7.444,0,13.5,6.056,13.5,13.5v147.78C150.329,172.8,144.273,178.856,136.829,178.856z M15.833,166.138 c0.392,3.77,3.588,6.718,7.459,6.718h113.536c4.136,0,7.5-3.364,7.5-7.5V17.576c0-4.136-3.364-7.5-7.5-7.5H23.293 c-3.872,0-7.067,2.948-7.459,6.718h3.681c1.657,0,3,1.343,3,3s-1.343,3-3,3h-3.722v9.927h3.722c1.657,0,3,1.343,3,3s-1.343,3-3,3 h-3.722v9.928h3.722c1.657,0,3,1.343,3,3s-1.343,3-3,3h-3.722v9.927h3.722c1.657,0,3,1.343,3,3s-1.343,3-3,3h-3.722v9.927h3.722 c1.657,0,3,1.343,3,3s-1.343,3-3,3h-3.722v9.928h3.722c1.657,0,3,1.343,3,3s-1.343,3-3,3h-3.722v9.927h3.722c1.657,0,3,1.343,3,3 s-1.343,3-3,3h-3.722v9.928h3.722c1.657,0,3,1.343,3,3s-1.343,3-3,3h-3.722v9.927h3.722c1.657,0,3,1.343,3,3s-1.343,3-3,3h-3.722 v9.928h3.722c1.657,0,3,1.343,3,3s-1.343,3-3,3H15.833z M35.639,137.103c-0.797,0-1.563-0.317-2.127-0.885l-5.522-5.556 c-1.168-1.176-1.163-3.075,0.013-4.243c1.174-1.167,3.074-1.162,4.242,0.013l3.188,3.207l9.283-11.251 c1.054-1.277,2.946-1.458,4.223-0.405c1.278,1.055,1.459,2.945,0.405,4.224l-11.39,13.806c-0.539,0.653-1.329,1.049-2.175,1.088 C35.731,137.102,35.685,137.103,35.639,137.103z M130.237,130.201H64.963c-1.657,0-3-1.343-3-3s1.343-3,3-3h65.274 c1.657,0,3,1.343,3,3S131.894,130.201,130.237,130.201z M35.639,104.986c-0.797,0-1.563-0.317-2.128-0.885l-5.522-5.557 c-1.168-1.176-1.162-3.075,0.013-4.243c1.174-1.167,3.074-1.162,4.243,0.013l3.188,3.208l9.282-11.252 c1.054-1.277,2.946-1.458,4.223-0.405c1.278,1.055,1.459,2.945,0.405,4.224l-11.39,13.807c-0.539,0.653-1.329,1.049-2.175,1.088 C35.731,104.985,35.685,104.986,35.639,104.986z M130.237,98.083H64.963c-1.657,0-3-1.343-3-3s1.343-3,3-3h65.274 c1.657,0,3,1.343,3,3S131.894,98.083,130.237,98.083z M35.639,72.868c-0.797,0-1.563-0.317-2.128-0.885l-5.522-5.557 c-1.168-1.176-1.162-3.075,0.013-4.243c1.174-1.167,3.074-1.162,4.243,0.013l3.188,3.208l9.282-11.251 c1.054-1.277,2.946-1.458,4.223-0.405c1.278,1.055,1.459,2.945,0.405,4.224l-11.39,13.806c-0.539,0.653-1.329,1.049-2.175,1.088 C35.731,72.867,35.685,72.868,35.639,72.868z M130.237,65.964H64.963c-1.657,0-3-1.343-3-3s1.343-3,3-3h65.274c1.657,0,3,1.343,3,3 S131.894,65.964,130.237,65.964z M35.639,40.75c-0.797,0-1.563-0.317-2.128-0.885l-5.522-5.557 c-1.168-1.176-1.162-3.075,0.013-4.243c1.174-1.167,3.074-1.162,4.243,0.013l3.188,3.208l9.282-11.251 c1.054-1.277,2.946-1.458,4.223-0.405c1.278,1.055,1.459,2.945,0.405,4.224l-11.39,13.806c-0.539,0.653-1.329,1.049-2.175,1.088 C35.731,40.749,35.685,40.75,35.639,40.75z M130.237,33.847H64.963c-1.657,0-3-1.343-3-3s1.343-3,3-3h65.274c1.657,0,3,1.343,3,3 S131.894,33.847,130.237,33.847z"/> </g>
</svg>